<?xml version="1.0" encoding="UTF-8" standalone="no"?>
<svg
   xmlns:dc="http://purl.org/dc/elements/1.1/"
   xmlns:cc="http://creativecommons.org/ns#"
   xmlns:rdf="http://www.w3.org/1999/02/22-rdf-syntax-ns#"
   xmlns:svg="http://www.w3.org/2000/svg"
   xmlns="http://www.w3.org/2000/svg"
   xmlns:sodipodi="http://sodipodi.sourceforge.net/DTD/sodipodi-0.dtd"
   xmlns:inkscape="http://www.inkscape.org/namespaces/inkscape"
   width="300"
   height="300"
   viewBox="0 0 79.374998 79.375001"
   version="1.1"
   id="svg881"
   inkscape:version="1.0.2-2 (e86c870879, 2021-01-15)"
   sodipodi:docname="mist.svg">
  <defs
     id="defs875" />
  <sodipodi:namedview
     id="base"
     pagecolor="#ffffff"
     bordercolor="#666666"
     borderopacity="1.0"
     inkscape:pageopacity="0.0"
     inkscape:pageshadow="2"
     inkscape:zoom="2.6377645"
     inkscape:cx="147"
     inkscape:cy="146.05223"
     inkscape:document-units="mm"
     inkscape:current-layer="layer1"
     inkscape:document-rotation="0"
     showgrid="false"
     units="px"
     inkscape:window-width="1920"
     inkscape:window-height="986"
     inkscape:window-x="-11"
     inkscape:window-y="-11"
     inkscape:window-maximized="1" />
  <metadata
     id="metadata878">
    <rdf:RDF>
      <cc:Work
         rdf:about="">
        <dc:format>image/svg+xml</dc:format>
        <dc:type
           rdf:resource="http://purl.org/dc/dcmitype/StillImage" />
        <dc:title></dc:title>
      </cc:Work>
    </rdf:RDF>
  </metadata>
  <g
     inkscape:label="Layer 1"
     inkscape:groupmode="layer"
     id="layer1">
    <g
       id="g2203"
       transform="translate(-8.85569,-17.272636)">
      <path
         id="rect2020"
         style="fill:#ffffff;stroke-width:4.99999;stroke-linecap:round;stroke-dasharray:20, 10"
         d="m 34.65867,39.086935 h 25.117629 c 1.159597,0 2.093136,0.933538 2.093136,2.093135 0,1.159597 -0.933539,2.093136 -2.093136,2.093136 H 34.65867 c -1.159597,0 -2.093135,-0.933539 -2.093135,-2.093136 0,-1.159597 0.933538,-2.093135 2.093135,-2.093135 z" />
      <path
         id="rect2020-0"
         style="fill:#ffffff;stroke-width:4.99999;stroke-linecap:round;stroke-dasharray:20, 10"
         d="M 72.692881,46.976968 H 11.220789 c -1.159597,0 -2.093135,0.933539 -2.093135,2.093136 0,1.159597 0.933538,2.093136 2.093135,2.093136 h 61.472092 c 1.159597,0 2.093136,-0.933539 2.093136,-2.093136 0,-1.159597 -0.933539,-2.093136 -2.093136,-2.093136 z"
         sodipodi:nodetypes="sssssss" />
      <path
         id="rect2020-9"
         style="fill:#ffffff;stroke-width:4.99999;stroke-linecap:round;stroke-dasharray:20, 10"
         d="m 48.152871,70.647066 h 25.117628 c 1.159598,0 2.093136,0.933538 2.093136,2.093135 0,1.159598 -0.933538,2.093136 -2.093136,2.093136 H 48.152871 c -1.159597,0 -2.093136,-0.933538 -2.093136,-2.093136 0,-1.159597 0.933539,-2.093135 2.093136,-2.093135 z" />
      <path
         id="rect2020-0-3"
         style="fill:#ffffff;stroke-width:4.99999;stroke-linecap:round;stroke-dasharray:20, 10"
         d="M 63.862831,62.757035 H 18.794906 c -1.159597,0 -2.093135,0.933539 -2.093135,2.093136 0,1.159597 0.933538,2.093136 2.093135,2.093136 h 45.067925 c 1.159597,0 2.093136,-0.933539 2.093136,-2.093136 0,-1.159597 -0.933539,-2.093136 -2.093136,-2.093136 z"
         sodipodi:nodetypes="sssssss" />
      <path
         id="rect2020-00"
         style="fill:#ffffff;stroke-width:4.99999;stroke-linecap:round;stroke-dasharray:20, 10"
         d="M 50.433889,54.867002 H 25.316261 c -1.159597,0 -2.093136,0.933539 -2.093136,2.093136 0,1.159597 0.933539,2.093135 2.093136,2.093135 h 25.117628 c 1.159597,0 2.093136,-0.933538 2.093136,-2.093135 0,-1.159597 -0.933539,-2.093136 -2.093136,-2.093136 z" />
      <path
         id="rect2020-00-9"
         style="fill:#ffffff;stroke-width:4.99999;stroke-linecap:round;stroke-dasharray:20, 10"
         d="M 85.86559,54.867002 H 60.747962 c -1.159597,0 -2.093136,0.933539 -2.093136,2.093136 0,1.159597 0.933539,2.093135 2.093136,2.093135 H 85.86559 c 1.159597,0 2.093136,-0.933538 2.093136,-2.093135 0,-1.159597 -0.933539,-2.093136 -2.093136,-2.093136 z" />
    </g>
  </g>
</svg>
