<?xml version="1.0" encoding="UTF-8" standalone="no"?>
<svg
   xmlns:dc="http://purl.org/dc/elements/1.1/"
   xmlns:cc="http://creativecommons.org/ns#"
   xmlns:rdf="http://www.w3.org/1999/02/22-rdf-syntax-ns#"
   xmlns:svg="http://www.w3.org/2000/svg"
   xmlns="http://www.w3.org/2000/svg"
   xmlns:sodipodi="http://sodipodi.sourceforge.net/DTD/sodipodi-0.dtd"
   xmlns:inkscape="http://www.inkscape.org/namespaces/inkscape"
   width="300"
   height="300"
   viewBox="0 0 79.374998 79.375001"
   version="1.1"
   id="svg881"
   inkscape:version="1.0.2-2 (e86c870879, 2021-01-15)"
   sodipodi:docname="snow.svg">
  <defs
     id="defs875" />
  <sodipodi:namedview
     id="base"
     pagecolor="#ffffff"
     bordercolor="#666666"
     borderopacity="1.0"
     inkscape:pageopacity="0.0"
     inkscape:pageshadow="2"
     inkscape:zoom="2.6377645"
     inkscape:cx="147"
     inkscape:cy="146.05223"
     inkscape:document-units="mm"
     inkscape:current-layer="layer1"
     inkscape:document-rotation="0"
     showgrid="false"
     units="px"
     inkscape:window-width="1920"
     inkscape:window-height="986"
     inkscape:window-x="-11"
     inkscape:window-y="-11"
     inkscape:window-maximized="1" />
  <metadata
     id="metadata878">
    <rdf:RDF>
      <cc:Work
         rdf:about="">
        <dc:format>image/svg+xml</dc:format>
        <dc:type
           rdf:resource="http://purl.org/dc/dcmitype/StillImage" />
        <dc:title></dc:title>
      </cc:Work>
    </rdf:RDF>
  </metadata>
  <g
     inkscape:label="Layer 1"
     inkscape:groupmode="layer"
     id="layer1">
    <path
       id="rect2219"
       style="fill:#cccccc;stroke-width:4.99999;stroke-linecap:round;stroke-dasharray:20, 10"
       d="m 39.687504,13.442073 c -0.973392,0 -1.756998,0.783606 -1.756998,1.757 v 6.405293 l -4.552177,-2.628263 c -0.842981,-0.486695 -1.913673,-0.199612 -2.400371,0.643372 -0.486696,0.842981 -0.19961,1.913157 0.643374,2.399853 l 5.871474,3.389974 c 0.140663,0.08121 0.288139,0.139136 0.4377,0.178284 V 36.644275 L 28.355378,31.11593 c 0.04087,-0.149098 0.06408,-0.305765 0.06408,-0.468188 v -6.779948 c 3e-6,-0.973394 -0.78309,-1.757 -1.756481,-1.757 -0.973395,3e-6 -1.757516,0.783609 -1.757516,1.757 v 5.256528 l -5.546948,-3.20239 c -0.842983,-0.486698 -1.913674,-0.200128 -2.40037,0.642855 -0.486697,0.842984 -0.199613,1.913155 0.643371,2.399853 l 5.546949,3.202906 -4.552177,2.628262 c -0.842981,0.486696 -1.129552,1.557388 -0.642855,2.400372 0.486695,0.842983 1.556871,1.129548 2.399852,0.642855 l 5.871477,-3.389974 c 0.140663,-0.08121 0.26442,-0.179956 0.373105,-0.289906 l 9.575641,5.528344 -9.575641,5.528344 C 26.48918,45.105896 26.365426,45.00715 26.22476,44.925939 l -5.871477,-3.389974 c -0.842981,-0.486698 -1.913673,-0.199609 -2.400369,0.643372 -0.486697,0.842986 -0.199609,1.913159 0.643372,2.399853 l 4.552177,2.628265 -5.546949,3.202905 c -0.842981,0.486696 -1.130067,1.556872 -0.643371,2.399853 0.486697,0.842984 1.557389,1.129548 2.40037,0.642855 l 5.546948,-3.202389 v 5.256527 c 0,0.973389 0.783605,1.757 1.757,1.756997 0.973391,6e-6 1.756997,-0.783605 1.756997,-1.756997 v -6.779948 c 0,-0.162422 -0.02371,-0.319093 -0.0646,-0.468188 l 9.575643,-5.528344 v 11.056688 c -0.149561,0.03914 -0.297037,0.09707 -0.4377,0.178285 l -5.871474,3.389973 c -0.842984,0.486696 -1.13007,1.557388 -0.643374,2.400369 0.486698,0.842984 1.55739,1.129551 2.400371,0.642856 l 4.552177,-2.628263 v 6.405293 c 0,0.973391 0.783606,1.757 1.756998,1.757 0.973394,0 1.757,-0.783609 1.757,-1.757 v -6.405293 l 4.552177,2.628263 c 0.842981,0.486695 1.913673,0.200128 2.400369,-0.642856 0.486698,-0.842981 0.199609,-1.913673 -0.643372,-2.400369 l -5.871477,-3.389973 c -0.140658,-0.08121 -0.288136,-0.13914 -0.437697,-0.178285 V 42.730726 l 9.575641,5.528344 c -0.04088,0.149095 -0.0646,0.305766 -0.0646,0.468188 v 6.779948 c 0,0.973392 0.783609,1.757003 1.757,1.756997 0.973395,3e-6 1.756998,-0.783608 1.756998,-1.756997 v -5.256527 l 5.54695,3.202389 c 0.842981,0.486693 1.913673,0.200129 2.400368,-0.642855 0.486696,-0.842981 0.19961,-1.913157 -0.643371,-2.399853 l -5.546947,-3.202905 4.552177,-2.628265 c 0.842981,-0.486694 1.130067,-1.556867 0.643372,-2.399853 -0.486696,-0.842981 -1.557388,-1.13007 -2.400372,-0.643372 l -5.871474,3.389974 c -0.140669,0.08121 -0.26442,0.179957 -0.373105,0.289904 l -9.575644,-5.528344 9.575644,-5.528344 c 0.108685,0.10995 0.232439,0.208698 0.373105,0.289906 l 5.871474,3.389974 c 0.842984,0.486693 1.91316,0.200128 2.399853,-0.642855 0.486698,-0.842984 0.200128,-1.913676 -0.642853,-2.400372 l -4.552177,-2.628262 5.546947,-3.202906 c 0.842984,-0.486698 1.13007,-1.556869 0.643371,-2.399853 -0.486695,-0.842983 -1.557385,-1.129553 -2.400368,-0.642855 l -5.54695,3.20239 v -5.256528 c 0,-0.973391 -0.784119,-1.756997 -1.757513,-1.757 -0.973392,0 -1.756485,0.783606 -1.756485,1.757 v 6.779948 c 3e-6,0.162423 0.0232,0.31909 0.06408,0.468188 l -9.575125,5.528345 V 25.587586 c 0.149561,-0.03915 0.297039,-0.09707 0.437697,-0.178284 l 5.871486,-3.389974 c 0.842981,-0.486696 1.13007,-1.556872 0.643372,-2.399853 -0.486696,-0.842984 -1.557388,-1.130067 -2.400369,-0.643372 l -4.552177,2.628263 v -6.405293 c 0,-0.973394 -0.783606,-1.757 -1.757,-1.757 z" />
  </g>
</svg>
