<?xml version="1.0" encoding="UTF-8" standalone="no"?>
<svg
   xmlns:dc="http://purl.org/dc/elements/1.1/"
   xmlns:cc="http://creativecommons.org/ns#"
   xmlns:rdf="http://www.w3.org/1999/02/22-rdf-syntax-ns#"
   xmlns:svg="http://www.w3.org/2000/svg"
   xmlns="http://www.w3.org/2000/svg"
   xmlns:sodipodi="http://sodipodi.sourceforge.net/DTD/sodipodi-0.dtd"
   xmlns:inkscape="http://www.inkscape.org/namespaces/inkscape"
   width="360"
   height="640"
   viewBox="0 0 95.250003 169.33333"
   version="1.1"
   id="svg8"
   inkscape:version="1.0.2-2 (e86c870879, 2021-01-15)"
   sodipodi:docname="weather-forecast-app-snow.svg">
  <defs
     id="defs2" />
  <sodipodi:namedview
     id="base"
     pagecolor="#ffffff"
     bordercolor="#666666"
     borderopacity="1.0"
     inkscape:pageopacity="0.0"
     inkscape:pageshadow="2"
     inkscape:zoom="1.2046875"
     inkscape:cx="180"
     inkscape:cy="317.92477"
     inkscape:document-units="mm"
     inkscape:current-layer="layer1"
     inkscape:document-rotation="0"
     showgrid="false"
     inkscape:window-width="1920"
     inkscape:window-height="986"
     inkscape:window-x="-11"
     inkscape:window-y="-11"
     inkscape:window-maximized="1"
     units="px" />
  <metadata
     id="metadata5">
    <rdf:RDF>
      <cc:Work
         rdf:about="">
        <dc:format>image/svg+xml</dc:format>
        <dc:type
           rdf:resource="http://purl.org/dc/dcmitype/StillImage" />
        <dc:title></dc:title>
      </cc:Work>
    </rdf:RDF>
  </metadata>
  <g
     inkscape:label="Layer 1"
     inkscape:groupmode="layer"
     id="layer1">
    <rect
       style="fill:#f2f2f2;fill-rule:evenodd;stroke-width:0.0702388;fill-opacity:1"
       id="rect10"
       width="95.25"
       height="169.33333"
       x="0.15763855"
       y="0.28024545" />
    <g
       id="g648">
      <text
         xml:space="preserve"
         style="font-style:normal;font-weight:normal;font-size:6.35px;line-height:1.25;font-family:sans-serif;fill:#4d4d4d;fill-opacity:1;stroke:none;stroke-width:0.183393"
         x="6.6585407"
         y="27.872087"
         id="text14"><tspan
           sodipodi:role="line"
           id="tspan12"
           x="6.6585407"
           y="27.872087"
           style="font-size:6.35px;fill:#4d4d4d;stroke-width:0.183393">São Paulo</tspan></text>
      <text
         xml:space="preserve"
         style="font-style:normal;font-weight:normal;font-size:34.5722px;line-height:1.25;font-family:sans-serif;fill:#4d4d4d;fill-opacity:1;stroke:none;stroke-width:0.872197"
         x="3.3092167"
         y="112.42632"
         id="text14-3"><tspan
           sodipodi:role="line"
           id="tspan12-3"
           x="3.3092167"
           y="112.42632"
           style="font-size:34.5722px;fill:#4d4d4d;stroke-width:0.872197">18°</tspan></text>
      <text
         xml:space="preserve"
         style="font-style:normal;font-weight:normal;font-size:3.88056px;line-height:1.25;font-family:sans-serif;text-align:start;text-anchor:start;fill:#4d4d4d;fill-opacity:1;stroke:none;stroke-width:0.089058"
         x="6.9072747"
         y="18.256422"
         id="text14-2"><tspan
           sodipodi:role="line"
           id="tspan12-33"
           x="6.9072747"
           y="18.256422"
           style="font-size:3.88056px;text-align:start;text-anchor:start;fill:#4d4d4d;stroke-width:0.089058">Sábado, 04 de setembro de 2021</tspan></text>
      <text
         xml:space="preserve"
         style="font-style:normal;font-weight:normal;font-size:6.35px;line-height:1.25;font-family:sans-serif;text-align:start;text-anchor:start;fill:#4d4d4d;fill-opacity:1;stroke:none;stroke-width:0.163095"
         x="6.5018196"
         y="123.99378"
         id="text14-2-0"><tspan
           sodipodi:role="line"
           id="tspan12-33-5"
           x="6.5018196"
           y="123.99378"
           style="font-size:6.35px;text-align:start;text-anchor:start;fill:#4d4d4d;stroke-width:0.163095">Nevando</tspan></text>
      <rect
         style="fill:#4d4d4d;stroke-width:0.0697725"
         id="rect94"
         width="88.352371"
         height="0.44066015"
         x="7.142096"
         y="127.93143" />
      <text
         xml:space="preserve"
         style="font-style:normal;font-variant:normal;font-weight:bold;font-stretch:normal;font-size:3.88056px;line-height:1.25;font-family:sans-serif;-inkscape-font-specification:'sans-serif Bold';text-align:end;text-anchor:end;fill:#4d4d4d;fill-opacity:1;stroke:none;stroke-width:0.089058"
         x="44.26968"
         y="9.0379171"
         id="text14-2-7"><tspan
           sodipodi:role="line"
           id="tspan12-33-0"
           x="44.26968"
           y="9.0379171"
           style="font-style:normal;font-variant:normal;font-weight:bold;font-stretch:normal;font-size:3.88056px;font-family:sans-serif;-inkscape-font-specification:'sans-serif Bold';text-align:end;text-anchor:end;fill:#4d4d4d;stroke-width:0.089058">Hoje</tspan></text>
      <text
         xml:space="preserve"
         style="font-style:normal;font-variant:normal;font-weight:normal;font-stretch:normal;font-size:3.88056px;line-height:1.25;font-family:sans-serif;-inkscape-font-specification:sans-serif;text-align:start;text-anchor:start;fill:#4d4d4d;fill-opacity:1;stroke:none;stroke-width:0.089058"
         x="50.684383"
         y="9.0379171"
         id="text14-2-7-4"><tspan
           sodipodi:role="line"
           id="tspan12-33-0-0"
           x="50.684383"
           y="9.0379171"
           style="font-style:normal;font-variant:normal;font-weight:normal;font-stretch:normal;font-size:3.88056px;font-family:sans-serif;-inkscape-font-specification:sans-serif;text-align:start;text-anchor:start;fill:#4d4d4d;stroke-width:0.089058">Semana</tspan></text>
      <text
         xml:space="preserve"
         style="font-style:normal;font-weight:normal;font-size:3.88056px;line-height:1.25;font-family:sans-serif;text-align:start;text-anchor:start;fill:#4d4d4d;fill-opacity:1;stroke:none;stroke-width:0.089058"
         x="46.971291"
         y="9.0379171"
         id="text14-2-7-2"><tspan
           sodipodi:role="line"
           id="tspan12-33-0-4"
           x="46.971291"
           y="9.0379171"
           style="font-size:3.88056px;text-align:start;text-anchor:start;fill:#4d4d4d;stroke-width:0.089058">|</tspan></text>
    </g>
    <path
       id="rect2219"
       style="fill:#cccccc;stroke-width:18.8976;stroke-linecap:round;stroke-dasharray:75.5906, 37.79529999999999745"
       d="M 180.5957 116.21289 C 176.91674 116.21289 173.95508 119.17455 173.95508 122.85352 L 173.95508 147.0625 L 156.75 137.12891 C 153.56393 135.28943 149.51722 136.37447 147.67773 139.56055 C 145.83825 142.74662 146.9233 146.79138 150.10938 148.63086 L 172.30078 161.44336 C 172.83242 161.7503 173.38981 161.96923 173.95508 162.11719 L 173.95508 203.90625 L 137.76562 183.01172 C 137.92009 182.4482 138.0078 181.85607 138.00781 181.24219 L 138.00781 155.61719 C 138.00782 151.93822 135.0481 148.97656 131.36914 148.97656 C 127.69017 148.97657 124.72656 151.93823 124.72656 155.61719 L 124.72656 175.48438 L 103.76172 163.38086 C 100.57564 161.54137 96.528934 162.62447 94.689453 165.81055 C 92.849968 168.99663 93.935012 173.04137 97.121094 174.88086 L 118.08594 186.98633 L 100.88086 196.91992 C 97.694789 198.7594 96.611687 202.80611 98.451172 205.99219 C 100.29065 209.17827 104.33541 210.26135 107.52148 208.42188 L 129.71289 195.60938 C 130.24453 195.30245 130.71227 194.92923 131.12305 194.51367 L 167.31445 215.4082 L 131.12305 236.30273 C 130.71227 235.88718 130.24454 235.51397 129.71289 235.20703 L 107.52148 222.39453 C 104.33541 220.55504 100.2887 221.6401 98.449219 224.82617 C 96.609734 228.01226 97.694789 232.05701 100.88086 233.89648 L 118.08594 243.83008 L 97.121094 255.93555 C 93.935024 257.77503 92.849972 261.81979 94.689453 265.00586 C 96.528938 268.19194 100.57565 269.27502 103.76172 267.43555 L 124.72656 255.33203 L 124.72656 275.19922 C 124.72656 278.87817 127.68822 281.83985 131.36719 281.83984 C 135.04615 281.83986 138.00781 278.87818 138.00781 275.19922 L 138.00781 249.57422 C 138.00781 248.96034 137.91818 248.3682 137.76367 247.80469 L 173.95508 226.91016 L 173.95508 268.69922 C 173.38981 268.84717 172.83242 269.06611 172.30078 269.37305 L 150.10938 282.18555 C 146.9233 284.02503 145.83825 288.07174 147.67773 291.25781 C 149.51722 294.44389 153.56393 295.52698 156.75 293.6875 L 173.95508 283.75391 L 173.95508 307.96289 C 173.95508 311.64185 176.91674 314.60352 180.5957 314.60352 C 184.27467 314.60352 187.23633 311.64185 187.23633 307.96289 L 187.23633 283.75391 L 204.44141 293.6875 C 207.62748 295.52698 211.67419 294.44389 213.51367 291.25781 C 215.35316 288.07174 214.2681 284.02503 211.08203 282.18555 L 188.89062 269.37305 C 188.359 269.06611 187.8016 268.84717 187.23633 268.69922 L 187.23633 226.91016 L 223.42773 247.80469 C 223.27323 248.3682 223.18359 248.96034 223.18359 249.57422 L 223.18359 275.19922 C 223.18359 278.87818 226.14526 281.83986 229.82422 281.83984 C 233.50319 281.83985 236.46484 278.87817 236.46484 275.19922 L 236.46484 255.33203 L 257.42969 267.43555 C 260.61576 269.27502 264.66247 268.19194 266.50195 265.00586 C 268.34143 261.81979 267.25638 257.77503 264.07031 255.93555 L 243.10547 243.83008 L 260.31055 233.89648 C 263.49662 232.05701 264.58167 228.01226 262.74219 224.82617 C 260.90271 221.6401 256.856 220.55504 253.66992 222.39453 L 231.47852 235.20703 C 230.94686 235.51397 230.47914 235.88718 230.06836 236.30273 L 193.87695 215.4082 L 230.06836 194.51367 C 230.47914 194.92923 230.94687 195.30245 231.47852 195.60938 L 253.66992 208.42188 C 256.856 210.26135 260.90076 209.17827 262.74023 205.99219 C 264.57972 202.80611 263.49662 198.7594 260.31055 196.91992 L 243.10547 186.98633 L 264.07031 174.88086 C 267.25639 173.04137 268.34144 168.99663 266.50195 165.81055 C 264.66247 162.62447 260.61577 161.54137 257.42969 163.38086 L 236.46484 175.48438 L 236.46484 155.61719 C 236.46484 151.93823 233.50124 148.97657 229.82227 148.97656 C 226.14331 148.97656 223.18359 151.93822 223.18359 155.61719 L 223.18359 181.24219 C 223.1836 181.85607 223.27131 182.4482 223.42578 183.01172 L 187.23633 203.90625 L 187.23633 162.11719 C 187.8016 161.96923 188.359 161.7503 188.89062 161.44336 L 211.08203 148.63086 C 214.2681 146.79138 215.35316 142.74662 213.51367 139.56055 C 211.67419 136.37447 207.62748 135.28943 204.44141 137.12891 L 187.23633 147.0625 L 187.23633 122.85352 C 187.23633 119.17455 184.27467 116.21289 180.5957 116.21289 z "
       transform="scale(0.26458333)" />
  </g>
</svg>
